<svg id="visual" viewBox="0 0 900 900" width="900" height="900" xmlns="http://www.w3.org/2000/svg" xmlns:xlink="http://www.w3.org/1999/xlink" version="1.1"><rect x="0" y="0" width="900" height="900" fill="#FF914D"></rect><g transform="translate(470.64182574591814 370.55555667109206)"><path d="M161.2 -263.7C203.9 -223.5 229.9 -170.2 263.2 -115C296.6 -59.8 337.4 -2.7 364 76.8C390.6 156.3 403.1 258.2 366.5 339.1C329.9 420 244.2 479.9 155.2 487.2C66.1 494.5 -26.2 449.2 -117.7 415.6C-209.1 381.9 -299.5 359.9 -350.5 302.8C-401.5 245.6 -413.1 153.3 -422.8 62.9C-432.6 -27.6 -440.5 -116.2 -398.1 -170.5C-355.7 -224.9 -263 -244.9 -188.3 -270.5C-113.5 -296 -56.8 -327 1.3 -329C59.3 -330.9 118.6 -303.8 161.2 -263.7" fill="#f7f7f7"></path></g></svg>